<svg version="1.1" id="Layer_1" xmlns="http://www.w3.org/2000/svg" xmlns:xlink="http://www.w3.org/1999/xlink" x="0px" y="0px"
	 width="100%" viewBox="0 0 560 377" enable-background="new 0 0 560 377" xml:space="preserve">
<path fill="#FEFEFF" opacity="1.000000" stroke="none" 
	d="
M357.000000,378.000000 
	C238.000000,378.000000 119.500000,378.000000 1.000000,378.000000 
	C1.000000,252.333328 1.000000,126.666664 1.000000,1.000000 
	C187.666672,1.000000 374.333344,1.000000 561.000000,1.000000 
	C561.000000,126.666664 561.000000,252.333328 561.000000,378.000000 
	C493.166656,378.000000 425.333344,378.000000 357.000000,378.000000 
M353.524811,204.648621 
	C352.707642,205.436615 351.890472,206.224609 350.768585,207.442505 
	C350.799835,207.615341 350.831085,207.788193 350.557312,208.726471 
	C350.465576,220.867310 350.318207,233.008148 350.316101,245.149002 
	C350.315460,248.772202 350.721405,252.395447 350.957794,256.744110 
	C353.019836,257.745544 355.512421,259.955231 357.025513,259.416046 
	C358.607635,258.852264 359.926880,255.718323 360.157715,253.578094 
	C360.630981,249.189911 360.299774,244.714966 360.299774,239.728775 
	C365.574890,239.728775 370.364807,239.722916 375.154694,239.730469 
	C379.705292,239.737625 382.333923,241.714081 382.441864,246.563263 
	C382.485931,248.541397 382.371796,250.899628 383.365326,252.398361 
	C385.193848,255.156708 387.506653,257.823730 390.209991,259.653687 
	C391.219910,260.337311 394.260437,258.987854 395.630219,257.744659 
	C396.266479,257.167236 395.314697,254.556793 394.733002,252.998550 
	C394.124786,251.369324 392.865173,249.977341 392.296082,248.340561 
	C390.719666,243.806564 389.354492,239.199127 387.731781,234.070587 
	C397.334106,224.437378 395.826019,211.106461 383.125763,205.208664 
	C382.061890,205.100601 380.998016,204.992538 379.043335,204.603226 
	C371.348145,204.626541 363.652954,204.649841 355.337830,204.464005 
	C354.929016,204.575516 354.520172,204.687027 353.524811,204.648621 
M403.196442,204.764191 
	C402.298370,206.482147 400.376343,208.510361 400.777588,209.834625 
	C401.217346,211.286072 403.712555,212.810333 405.468414,213.025238 
	C409.346588,213.499908 413.322876,213.172821 417.663239,213.172821 
	C417.663239,215.470673 417.663300,217.103455 417.663269,218.736237 
	C417.662872,230.053223 417.710632,241.370529 417.634674,252.687012 
	C417.609711,256.410675 418.458160,259.745728 422.704590,259.812042 
	C427.305359,259.883911 428.176208,256.362427 428.054993,252.470108 
	C427.972137,249.809860 428.039490,247.144958 428.039490,244.482132 
	C428.039520,234.220413 428.039490,223.958694 428.039490,213.169266 
	C432.558411,213.169266 436.557068,213.516479 440.444275,213.009354 
	C442.152161,212.786545 444.548828,211.060974 444.933807,209.577011 
	C445.255035,208.338821 443.097931,206.457672 441.300079,204.483078 
	C436.541290,204.372726 431.780823,204.126038 427.024048,204.183075 
	C419.324585,204.275375 411.627472,204.567200 403.196442,204.764191 
M323.402679,175.753220 
	C324.099274,168.866852 325.942383,161.864655 325.260803,155.117493 
	C323.698761,139.653976 313.597137,126.055748 294.613831,126.869774 
	C288.126038,127.147987 281.615631,126.858116 275.116638,126.927635 
	C269.099030,126.992004 267.220276,128.786743 267.204529,134.613525 
	C267.156738,152.279388 267.155151,169.945557 267.204529,187.611404 
	C267.220734,193.418671 269.186401,195.457596 274.982422,195.569168 
	C281.812897,195.700684 288.649231,195.680740 295.480713,195.574997 
	C308.913116,195.367096 318.199768,189.077286 323.402679,175.753220 
M389.035370,148.690765 
	C384.814972,163.013321 386.804932,176.189758 397.512756,186.968384 
	C406.885773,196.403351 418.613190,198.807220 431.059143,194.406342 
	C444.201294,189.759293 451.230072,179.563492 452.909393,165.994095 
	C455.377258,146.053146 442.524963,128.286942 424.574219,126.141304 
	C408.840820,124.260719 396.655090,131.771378 389.035370,148.690765 
M474.295807,157.194550 
	C477.958984,141.126495 490.747955,134.248627 507.020966,139.669235 
	C510.885345,140.956482 514.270325,141.180511 516.149841,136.700592 
	C517.670532,133.075882 516.184265,130.508621 511.076416,128.640686 
	C497.947815,123.839554 485.727692,124.879585 474.521454,134.063431 
	C460.063660,145.912094 456.855713,166.783936 467.483826,180.991974 
	C480.958069,199.004913 502.158295,200.038422 518.028381,190.142914 
	C519.456604,189.252350 520.717468,186.946533 520.795959,185.240005 
	C521.109375,178.424728 521.032654,171.584076 520.877869,164.757858 
	C520.802673,161.439713 519.086670,158.716278 515.599182,158.513245 
	C509.962769,158.185089 504.283295,158.258728 498.639130,158.525513 
	C495.083069,158.693604 493.173737,161.310928 493.319183,164.618423 
	C493.466736,167.974548 495.676697,170.026443 499.254364,170.086761 
	C502.042114,170.133774 504.831299,170.096161 508.153870,170.096161 
	C508.153870,173.061478 507.854584,175.556549 508.218597,177.950760 
	C508.896454,182.409241 506.579468,183.620270 502.757935,184.181641 
	C485.426575,186.727570 473.379700,175.798279 474.295807,157.194550 
M126.077827,178.615616 
	C135.962250,170.930634 138.799911,158.498627 133.198120,147.421219 
	C128.036774,137.214798 116.133026,131.792252 105.586235,134.754791 
	C94.882484,137.761414 88.469093,144.726761 86.866379,155.666458 
	C85.372566,165.862747 89.378723,173.990173 97.905273,179.556580 
	C107.072739,185.541428 116.417831,184.975113 126.077827,178.615616 
M101.745605,201.815521 
	C95.394379,197.057434 89.460800,191.557953 82.604858,187.695816 
	C68.397408,179.692398 52.907017,173.758102 42.225090,160.178314 
	C38.131142,176.351471 44.476048,193.614853 59.444271,203.133026 
	C74.881691,212.949539 91.187569,221.400330 107.260971,230.532425 
	C109.410072,220.627319 108.642303,211.032074 101.745605,201.815521 
M120.382683,227.904114 
	C127.433357,223.887054 134.389465,219.691452 141.556885,215.894806 
	C152.265060,210.222549 163.119278,204.819183 171.560898,195.796127 
	C181.045059,185.658768 182.476471,173.469955 180.834351,159.224319 
	C172.445038,170.929993 160.795380,176.378662 149.639893,182.564270 
	C142.254959,186.659134 134.704224,190.580551 127.816063,195.417480 
	C116.332085,203.481644 111.319458,217.138382 116.222572,230.966232 
	C117.429611,230.083435 118.616753,229.215179 120.382683,227.904114 
M198.104691,138.646667 
	C198.107941,148.473877 197.901947,158.306870 198.172272,168.126724 
	C198.452438,178.303726 201.796432,187.155563 211.369736,192.232727 
	C228.861160,201.509216 252.097305,192.868561 252.576279,167.845062 
	C252.786606,156.855927 252.647308,145.859451 252.591171,134.866684 
	C252.583679,133.398712 252.628448,131.445511 251.774475,130.572372 
	C250.216339,128.979279 247.991028,127.088715 246.067535,127.113922 
	C244.618637,127.132912 242.687943,129.734314 241.922195,131.580475 
	C241.140488,133.465012 241.432480,135.829636 241.404114,137.986069 
	C241.261826,148.805252 241.505310,159.642517 240.946045,170.438889 
	C240.536667,178.341446 233.308990,184.120026 225.225662,184.019073 
	C217.253464,183.919479 210.968781,178.184189 210.698868,170.012360 
	C210.330704,158.866272 210.500504,147.703064 210.358719,136.548233 
	C210.333664,134.577866 210.487579,132.243973 209.524017,130.741714 
	C208.415497,129.013443 206.096985,126.912910 204.413956,127.004051 
	C202.487869,127.108345 200.050262,129.082611 199.002655,130.912811 
	C197.953430,132.745789 198.344757,135.403381 198.104691,138.646667 
M499.092651,246.452164 
	C499.092499,234.634857 499.045532,222.817276 499.120392,211.000443 
	C499.143188,207.402634 498.306305,204.531387 494.120178,204.501419 
	C489.845551,204.470840 489.130981,207.586029 489.118103,211.016861 
	C489.098206,216.324112 489.112854,221.631485 489.112854,227.207947 
	C480.510651,227.207947 472.284119,227.207947 463.542877,227.207947 
	C463.542877,221.461914 463.442200,215.998306 463.580872,210.540771 
	C463.663300,207.298233 462.766479,204.564011 459.290466,204.448959 
	C455.611450,204.327194 453.688171,206.564697 453.714600,210.528091 
	C453.809875,224.841370 453.781158,239.155777 453.732178,253.469513 
	C453.719574,257.156952 455.029999,259.972015 458.987213,259.804932 
	C462.657227,259.649994 463.693115,256.870209 463.586792,253.392715 
	C463.420990,247.969559 463.542938,242.537628 463.542938,237.115326 
	C472.377411,237.115326 480.580444,237.115326 489.138092,237.115326 
	C489.138092,243.129807 489.016022,248.768005 489.185699,254.397415 
	C489.281189,257.566284 491.049896,260.398315 494.326752,259.676025 
	C496.203461,259.262360 498.089996,256.482086 498.905365,254.357834 
	C499.685699,252.324677 499.085846,249.761765 499.092651,246.452164 
M341.688965,151.818085 
	C342.795074,153.277847 343.750427,154.888504 345.033997,156.170609 
	C349.945038,161.076096 351.818634,166.830063 351.131714,173.779083 
	C350.642395,178.728912 350.946198,183.768417 351.067841,188.763718 
	C351.160767,192.578094 353.011230,195.393524 357.057709,195.259232 
	C360.872192,195.132614 362.387482,192.438660 362.250427,188.705750 
	C362.146576,185.877319 362.539612,183.003128 362.184814,180.216370 
	C360.912140,170.220276 363.869385,161.827026 370.391144,154.157608 
	C375.004181,148.732849 378.748596,142.555862 382.732819,136.615433 
	C384.890411,133.398499 384.649933,130.197815 381.309967,127.879112 
	C378.014679,125.591385 375.315613,127.001640 373.184265,129.870926 
	C371.698303,131.871399 370.358856,133.980362 368.943573,136.033737 
	C365.141449,141.549988 361.333771,147.062378 357.350525,152.833908 
	C356.353516,151.759872 355.858856,151.326004 355.482422,150.806458 
	C350.507294,143.939514 345.595886,137.025864 340.565338,130.199921 
	C338.224823,127.024101 335.156555,125.475098 331.551819,128.089523 
	C327.948090,130.703293 328.427429,133.971283 330.848236,137.226868 
	C334.320953,141.897156 337.790985,146.569427 341.688965,151.818085 
M222.824142,251.140121 
	C217.303268,252.557205 212.308792,251.318542 207.728180,248.102142 
	C204.887268,246.107315 201.868362,243.954285 199.187546,247.953445 
	C196.524307,251.926361 199.748581,254.110886 202.518082,255.955154 
	C211.985657,262.259827 221.949905,262.485474 231.785675,257.179199 
	C237.355408,254.174377 239.751678,248.935501 239.191528,242.469070 
	C238.664276,236.382248 235.755661,232.058578 229.892975,230.178497 
	C224.527267,228.457764 219.012833,227.205658 213.619370,225.564850 
	C210.522003,224.622574 207.647278,222.376770 208.827530,219.135056 
	C209.722717,216.676376 212.842560,213.380920 214.999222,213.361038 
	C219.936142,213.315567 225.088028,214.513153 229.764435,216.250702 
	C232.747940,217.359238 235.011368,218.412125 237.108856,215.511429 
	C239.416885,212.319534 237.194427,210.111404 234.898666,208.377579 
	C228.180786,203.304092 220.422211,202.726334 212.576614,204.350983 
	C203.870193,206.153854 199.005005,212.136749 199.071228,219.892395 
	C199.138840,227.810028 203.965622,233.159546 212.814362,235.149628 
	C216.213547,235.914108 219.656143,236.543060 222.985580,237.544327 
	C226.477325,238.594391 230.189850,240.649734 229.559723,244.535660 
	C229.172501,246.923569 225.725143,248.815247 222.824142,251.140121 
M334.255188,256.260315 
	C335.721588,259.259064 337.827026,261.471832 341.291901,259.556671 
	C344.477600,257.795837 343.628876,254.998688 342.423309,252.151566 
	C336.216278,237.492615 330.221191,222.742828 323.872375,208.146423 
	C323.099487,206.369507 320.631866,204.227722 318.971741,204.246155 
	C317.284485,204.264877 314.851868,206.412323 314.074127,208.204193 
	C307.539429,223.260040 301.196136,238.403351 295.155701,253.663025 
	C294.512817,255.287033 296.179382,257.825226 296.774567,259.939331 
	C298.774353,258.938568 302.256775,258.242432 302.535065,256.887970 
	C304.450073,247.566925 310.722778,246.586426 318.425415,247.599945 
	C319.733215,247.772034 321.083099,247.624268 322.413544,247.624222 
	C330.775085,247.623886 330.775085,247.623901 334.255188,256.260315 
M289.672607,247.770905 
	C284.350464,235.051529 279.159698,222.274078 273.585052,209.666367 
	C272.582397,207.398788 269.997925,205.830627 268.143799,203.939545 
	C266.160553,205.908081 263.370697,207.522736 262.326385,209.903168 
	C256.056580,224.194748 250.202332,238.668350 244.171783,253.065430 
	C243.036438,255.775909 242.536484,258.450226 245.738022,259.867432 
	C248.767365,261.208405 251.338425,259.653992 251.904037,256.700836 
	C253.575623,247.973450 259.246094,246.445282 266.791748,247.597366 
	C268.093872,247.796188 269.489227,247.827240 270.778717,247.591812 
	C277.573303,246.351273 281.833313,248.822800 283.269287,255.756897 
	C283.432281,256.543884 283.794220,257.643677 284.383362,257.921844 
	C286.129852,258.746490 288.468658,260.180084 289.760925,259.590210 
	C291.109283,258.974792 292.174896,256.272491 292.148590,254.500580 
	C292.118713,252.486206 290.742615,250.491791 289.672607,247.770905 
M161.627151,236.146942 
	C168.667572,230.799744 172.944199,223.912979 173.826218,215.694534 
	C163.294083,218.539795 152.894989,221.212906 142.577148,224.169571 
	C128.397522,228.232849 120.175964,237.930466 116.301445,252.661407 
	C121.254005,251.335052 125.546600,250.238113 129.808823,249.033691 
	C140.654419,245.968918 151.618134,243.185867 161.627151,236.146942 
M55.440998,231.035995 
	C62.094341,235.264893 68.331459,240.494629 75.503136,243.477173 
	C85.139534,247.484726 95.497543,249.757095 106.498756,253.060455 
	C102.441750,239.730682 96.400208,229.781296 83.729408,225.761688 
	C72.263069,222.124176 60.644592,218.966187 48.922077,215.546860 
	C49.270168,220.937653 51.321018,226.009811 55.440998,231.035995 
M511.026428,224.502319 
	C511.027832,234.302292 511.023895,244.102280 511.033630,253.902252 
	C511.036835,257.105164 512.311890,259.732269 515.714844,259.814850 
	C519.281250,259.901367 520.958008,257.475098 520.956177,253.929459 
	C520.948792,239.312531 520.958252,224.695618 520.949646,210.078690 
	C520.947754,206.817398 519.603271,204.482483 516.071960,204.538361 
	C512.690491,204.591888 511.033173,206.676239 511.031006,210.049606 
	C511.028107,214.534348 511.027740,219.019073 511.026428,224.502319 
z"/>
<path fill="#1A81CA" opacity="1.000000" stroke="none" 
	d="
M323.237488,176.108246 
	C318.199768,189.077286 308.913116,195.367096 295.480713,195.574997 
	C288.649231,195.680740 281.812897,195.700684 274.982422,195.569168 
	C269.186401,195.457596 267.220734,193.418671 267.204529,187.611404 
	C267.155151,169.945557 267.156738,152.279388 267.204529,134.613525 
	C267.220276,128.786743 269.099030,126.992004 275.116638,126.927635 
	C281.615631,126.858116 288.126038,127.147987 294.613831,126.869774 
	C313.597137,126.055748 323.698761,139.653976 325.260803,155.117493 
	C325.942383,161.864655 324.099274,168.866852 323.237488,176.108246 
M292.387390,184.078049 
	C303.105927,184.008331 308.205780,181.075790 311.175171,172.686157 
	C314.042755,164.584076 314.372345,156.170822 310.475586,148.471191 
	C308.600464,144.766022 304.998627,140.365173 301.376556,139.448318 
	C294.358215,137.671753 286.772400,138.137070 279.358185,137.669342 
	C279.358185,153.755096 279.358185,168.657013 279.358185,184.078369 
	C283.532410,184.078369 287.477722,184.078369 292.387390,184.078049 
z"/>
<path fill="#1980C9" opacity="1.000000" stroke="none" 
	d="
M389.131042,148.309250 
	C396.655090,131.771378 408.840820,124.260719 424.574219,126.141304 
	C442.524963,128.286942 455.377258,146.053146 452.909393,165.994095 
	C451.230072,179.563492 444.201294,189.759293 431.059143,194.406342 
	C418.613190,198.807220 406.885773,196.403351 397.512756,186.968384 
	C386.804932,176.189758 384.814972,163.013321 389.131042,148.309250 
M424.456451,184.180374 
	C438.346863,181.221161 445.486786,162.104187 437.498688,148.404465 
	C433.108459,140.875153 426.679749,136.707047 417.689941,137.821747 
	C405.404053,139.345200 397.911987,151.066437 400.146088,166.112015 
	C401.790619,177.187164 410.755127,186.615936 424.456451,184.180374 
z"/>
<path fill="#1A80C9" opacity="1.000000" stroke="none" 
	d="
M474.198181,157.608749 
	C473.379700,175.798279 485.426575,186.727570 502.757935,184.181641 
	C506.579468,183.620270 508.896454,182.409241 508.218597,177.950760 
	C507.854584,175.556549 508.153870,173.061478 508.153870,170.096161 
	C504.831299,170.096161 502.042114,170.133774 499.254364,170.086761 
	C495.676697,170.026443 493.466736,167.974548 493.319183,164.618423 
	C493.173737,161.310928 495.083069,158.693604 498.639130,158.525513 
	C504.283295,158.258728 509.962769,158.185089 515.599182,158.513245 
	C519.086670,158.716278 520.802673,161.439713 520.877869,164.757858 
	C521.032654,171.584076 521.109375,178.424728 520.795959,185.240005 
	C520.717468,186.946533 519.456604,189.252350 518.028381,190.142914 
	C502.158295,200.038422 480.958069,199.004913 467.483826,180.991974 
	C456.855713,166.783936 460.063660,145.912094 474.521454,134.063431 
	C485.727692,124.879585 497.947815,123.839554 511.076416,128.640686 
	C516.184265,130.508621 517.670532,133.075882 516.149841,136.700592 
	C514.270325,141.180511 510.885345,140.956482 507.020966,139.669235 
	C490.747955,134.248627 477.958984,141.126495 474.198181,157.608749 
z"/>
<path fill="#167EC9" opacity="1.000000" stroke="none" 
	d="
M125.807663,178.863342 
	C116.417831,184.975113 107.072739,185.541428 97.905273,179.556580 
	C89.378723,173.990173 85.372566,165.862747 86.866379,155.666458 
	C88.469093,144.726761 94.882484,137.761414 105.586235,134.754791 
	C116.133026,131.792252 128.036774,137.214798 133.198120,147.421219 
	C138.799911,158.498627 135.962250,170.930634 125.807663,178.863342 
z"/>
<path fill="#174091" opacity="1.000000" stroke="none" 
	d="
M101.964470,202.102966 
	C108.642303,211.032074 109.410072,220.627319 107.260971,230.532425 
	C91.187569,221.400330 74.881691,212.949539 59.444271,203.133026 
	C44.476048,193.614853 38.131142,176.351471 42.225090,160.178314 
	C52.907017,173.758102 68.397408,179.692398 82.604858,187.695816 
	C89.460800,191.557953 95.394379,197.057434 101.964470,202.102966 
z"/>
<path fill="#174091" opacity="1.000000" stroke="none" 
	d="
M120.093285,228.125519 
	C118.616753,229.215179 117.429611,230.083435 116.222572,230.966232 
	C111.319458,217.138382 116.332085,203.481644 127.816063,195.417480 
	C134.704224,190.580551 142.254959,186.659134 149.639893,182.564270 
	C160.795380,176.378662 172.445038,170.929993 180.834351,159.224319 
	C182.476471,173.469955 181.045059,185.658768 171.560898,195.796127 
	C163.119278,204.819183 152.265060,210.222549 141.556885,215.894806 
	C134.389465,219.691452 127.433357,223.887054 120.093285,228.125519 
z"/>
<path fill="#1D82CA" opacity="1.000000" stroke="none" 
	d="
M198.104675,138.173096 
	C198.344757,135.403381 197.953430,132.745789 199.002655,130.912811 
	C200.050262,129.082611 202.487869,127.108345 204.413956,127.004051 
	C206.096985,126.912910 208.415497,129.013443 209.524017,130.741714 
	C210.487579,132.243973 210.333664,134.577866 210.358719,136.548233 
	C210.500504,147.703064 210.330704,158.866272 210.698868,170.012360 
	C210.968781,178.184189 217.253464,183.919479 225.225662,184.019073 
	C233.308990,184.120026 240.536667,178.341446 240.946045,170.438889 
	C241.505310,159.642517 241.261826,148.805252 241.404114,137.986069 
	C241.432480,135.829636 241.140488,133.465012 241.922195,131.580475 
	C242.687943,129.734314 244.618637,127.132912 246.067535,127.113922 
	C247.991028,127.088715 250.216339,128.979279 251.774475,130.572372 
	C252.628448,131.445511 252.583679,133.398712 252.591171,134.866684 
	C252.647308,145.859451 252.786606,156.855927 252.576279,167.845062 
	C252.097305,192.868561 228.861160,201.509216 211.369736,192.232727 
	C201.796432,187.155563 198.452438,178.303726 198.172272,168.126724 
	C197.901947,158.306870 198.107941,148.473877 198.104675,138.173096 
z"/>
<path fill="#393939" opacity="1.000000" stroke="none" 
	d="
M499.092651,246.941925 
	C499.085846,249.761765 499.685699,252.324677 498.905365,254.357834 
	C498.089996,256.482086 496.203461,259.262360 494.326752,259.676025 
	C491.049896,260.398315 489.281189,257.566284 489.185699,254.397415 
	C489.016022,248.768005 489.138092,243.129807 489.138092,237.115326 
	C480.580444,237.115326 472.377411,237.115326 463.542938,237.115326 
	C463.542938,242.537628 463.420990,247.969559 463.586792,253.392715 
	C463.693115,256.870209 462.657227,259.649994 458.987213,259.804932 
	C455.029999,259.972015 453.719574,257.156952 453.732178,253.469513 
	C453.781158,239.155777 453.809875,224.841370 453.714600,210.528091 
	C453.688171,206.564697 455.611450,204.327194 459.290466,204.448959 
	C462.766479,204.564011 463.663300,207.298233 463.580872,210.540771 
	C463.442200,215.998306 463.542877,221.461914 463.542877,227.207947 
	C472.284119,227.207947 480.510651,227.207947 489.112854,227.207947 
	C489.112854,221.631485 489.098206,216.324112 489.118103,211.016861 
	C489.130981,207.586029 489.845551,204.470840 494.120178,204.501419 
	C498.306305,204.531387 499.143188,207.402634 499.120392,211.000443 
	C499.045532,222.817276 499.092499,234.634857 499.092651,246.941925 
z"/>
<path fill="#393939" opacity="1.000000" stroke="none" 
	d="
M355.957764,204.673157 
	C363.652954,204.649841 371.348145,204.626541 379.688660,205.012817 
	C381.421478,205.511017 382.508942,205.599609 383.596405,205.688202 
	C395.826019,211.106461 397.334106,224.437378 387.731781,234.070587 
	C389.354492,239.199127 390.719666,243.806564 392.296082,248.340561 
	C392.865173,249.977341 394.124786,251.369324 394.733002,252.998550 
	C395.314697,254.556793 396.266479,257.167236 395.630219,257.744659 
	C394.260437,258.987854 391.219910,260.337311 390.209991,259.653687 
	C387.506653,257.823730 385.193848,255.156708 383.365326,252.398361 
	C382.371796,250.899628 382.485931,248.541397 382.441864,246.563263 
	C382.333923,241.714081 379.705292,239.737625 375.154694,239.730469 
	C370.364807,239.722916 365.574890,239.728775 360.299774,239.728775 
	C360.299774,244.714966 360.630981,249.189911 360.157715,253.578094 
	C359.926880,255.718323 358.607635,258.852264 357.025513,259.416046 
	C355.512421,259.955231 353.019836,257.745544 351.223541,256.069183 
	C351.602661,240.142929 351.726349,224.891647 351.787994,209.640106 
	C351.790253,209.081665 351.184662,208.520782 350.862366,207.961029 
	C350.831085,207.788193 350.799835,207.615341 351.225647,207.198059 
	C352.432709,206.634460 353.182648,206.315292 354.205048,205.980682 
	C354.970917,205.534546 355.464325,205.103851 355.957764,204.673157 
M383.095703,225.438324 
	C384.313080,218.615372 382.494141,213.877014 377.759491,213.432236 
	C372.078491,212.898560 366.309021,213.306137 360.527832,213.306137 
	C360.527832,219.614853 360.527832,225.327621 360.527832,231.581680 
	C365.412964,231.581680 370.026825,231.384384 374.615601,231.639191 
	C378.892365,231.876663 381.622162,230.250961 383.095703,225.438324 
z"/>
<path fill="#1980C9" opacity="1.000000" stroke="none" 
	d="
M341.475525,151.529480 
	C337.790985,146.569427 334.320953,141.897156 330.848236,137.226868 
	C328.427429,133.971283 327.948090,130.703293 331.551819,128.089523 
	C335.156555,125.475098 338.224823,127.024101 340.565338,130.199921 
	C345.595886,137.025864 350.507294,143.939514 355.482422,150.806458 
	C355.858856,151.326004 356.353516,151.759872 357.350525,152.833908 
	C361.333771,147.062378 365.141449,141.549988 368.943573,136.033737 
	C370.358856,133.980362 371.698303,131.871399 373.184265,129.870926 
	C375.315613,127.001640 378.014679,125.591385 381.309967,127.879112 
	C384.649933,130.197815 384.890411,133.398499 382.732819,136.615433 
	C378.748596,142.555862 375.004181,148.732849 370.391144,154.157608 
	C363.869385,161.827026 360.912140,170.220276 362.184814,180.216370 
	C362.539612,183.003128 362.146576,185.877319 362.250427,188.705750 
	C362.387482,192.438660 360.872192,195.132614 357.057709,195.259232 
	C353.011230,195.393524 351.160767,192.578094 351.067841,188.763718 
	C350.946198,183.768417 350.642395,178.728912 351.131714,173.779083 
	C351.818634,166.830063 349.945038,161.076096 345.033997,156.170609 
	C343.750427,154.888504 342.795074,153.277847 341.475525,151.529480 
z"/>
<path fill="#383838" opacity="1.000000" stroke="none" 
	d="
M223.238007,251.034927 
	C225.725143,248.815247 229.172501,246.923569 229.559723,244.535660 
	C230.189850,240.649734 226.477325,238.594391 222.985580,237.544327 
	C219.656143,236.543060 216.213547,235.914108 212.814362,235.149628 
	C203.965622,233.159546 199.138840,227.810028 199.071228,219.892395 
	C199.005005,212.136749 203.870193,206.153854 212.576614,204.350983 
	C220.422211,202.726334 228.180786,203.304092 234.898666,208.377579 
	C237.194427,210.111404 239.416885,212.319534 237.108856,215.511429 
	C235.011368,218.412125 232.747940,217.359238 229.764435,216.250702 
	C225.088028,214.513153 219.936142,213.315567 214.999222,213.361038 
	C212.842560,213.380920 209.722717,216.676376 208.827530,219.135056 
	C207.647278,222.376770 210.522003,224.622574 213.619370,225.564850 
	C219.012833,227.205658 224.527267,228.457764 229.892975,230.178497 
	C235.755661,232.058578 238.664276,236.382248 239.191528,242.469070 
	C239.751678,248.935501 237.355408,254.174377 231.785675,257.179199 
	C221.949905,262.485474 211.985657,262.259827 202.518082,255.955154 
	C199.748581,254.110886 196.524307,251.926361 199.187546,247.953445 
	C201.868362,243.954285 204.887268,246.107315 207.728180,248.102142 
	C212.308792,251.318542 217.303268,252.557205 223.238007,251.034927 
z"/>
<path fill="#393939" opacity="1.000000" stroke="none" 
	d="
M334.125763,255.900848 
	C330.775085,247.623901 330.775085,247.623886 322.413544,247.624222 
	C321.083099,247.624268 319.733215,247.772034 318.425415,247.599945 
	C310.722778,246.586426 304.450073,247.566925 302.535065,256.887970 
	C302.256775,258.242432 298.774353,258.938568 296.774597,259.939331 
	C296.179382,257.825226 294.512817,255.287033 295.155701,253.663025 
	C301.196136,238.403351 307.539429,223.260040 314.074127,208.204193 
	C314.851868,206.412323 317.284485,204.264877 318.971741,204.246155 
	C320.631866,204.227722 323.099487,206.369507 323.872375,208.146423 
	C330.221191,222.742828 336.216278,237.492615 342.423309,252.151566 
	C343.628876,254.998688 344.477600,257.795837 341.291901,259.556671 
	C337.827026,261.471832 335.721588,259.259064 334.125763,255.900848 
M320.745361,223.988342 
	C320.073120,222.813782 319.400909,221.639236 318.417267,219.920547 
	C315.721619,226.355698 313.328064,232.069733 310.870605,237.936264 
	C316.286407,237.936264 321.116211,237.936264 326.497803,237.936264 
	C324.504578,233.161942 322.735809,228.925323 320.745361,223.988342 
z"/>
<path fill="#3A3A3A" opacity="1.000000" stroke="none" 
	d="
M289.812134,248.129807 
	C290.742615,250.491791 292.118713,252.486206 292.148590,254.500580 
	C292.174896,256.272491 291.109283,258.974792 289.760925,259.590210 
	C288.468658,260.180084 286.129852,258.746490 284.383362,257.921844 
	C283.794220,257.643677 283.432281,256.543884 283.269287,255.756897 
	C281.833313,248.822800 277.573303,246.351273 270.778717,247.591812 
	C269.489227,247.827240 268.093872,247.796188 266.791748,247.597366 
	C259.246094,246.445282 253.575623,247.973450 251.904037,256.700836 
	C251.338425,259.653992 248.767365,261.208405 245.738022,259.867432 
	C242.536484,258.450226 243.036438,255.775909 244.171783,253.065430 
	C250.202332,238.668350 256.056580,224.194748 262.326385,209.903168 
	C263.370697,207.522736 266.160553,205.908081 268.143799,203.939545 
	C269.997925,205.830627 272.582397,207.398788 273.585052,209.666367 
	C279.159698,222.274078 284.350464,235.051529 289.812134,248.129807 
M269.311554,223.378723 
	C268.807343,222.378418 268.303162,221.378128 267.530945,219.846085 
	C264.901062,226.185181 262.500732,231.970932 259.979492,238.048096 
	C265.478119,238.048096 270.191772,238.048096 275.560272,238.048096 
	C273.468842,233.046677 271.577087,228.522751 269.311554,223.378723 
z"/>
<path fill="#194191" opacity="1.000000" stroke="none" 
	d="
M161.337784,236.357819 
	C151.618134,243.185867 140.654419,245.968918 129.808823,249.033691 
	C125.546600,250.238113 121.254005,251.335052 116.301445,252.661407 
	C120.175964,237.930466 128.397522,228.232849 142.577148,224.169571 
	C152.894989,221.212906 163.294083,218.539795 173.826218,215.694534 
	C172.944199,223.912979 168.667572,230.799744 161.337784,236.357819 
z"/>
<path fill="#184191" opacity="1.000000" stroke="none" 
	d="
M55.215683,230.755463 
	C51.321018,226.009811 49.270168,220.937653 48.922077,215.546860 
	C60.644592,218.966187 72.263069,222.124176 83.729408,225.761688 
	C96.400208,229.781296 102.441750,239.730682 106.498756,253.060455 
	C95.497543,249.757095 85.139534,247.484726 75.503136,243.477173 
	C68.331459,240.494629 62.094341,235.264893 55.215683,230.755463 
z"/>
<path fill="#373737" opacity="1.000000" stroke="none" 
	d="
M442.038422,204.861267 
	C443.097931,206.457672 445.255035,208.338821 444.933807,209.577011 
	C444.548828,211.060974 442.152161,212.786545 440.444275,213.009354 
	C436.557068,213.516479 432.558411,213.169266 428.039490,213.169266 
	C428.039490,223.958694 428.039520,234.220413 428.039490,244.482132 
	C428.039490,247.144958 427.972137,249.809860 428.054993,252.470108 
	C428.176208,256.362427 427.305359,259.883911 422.704590,259.812042 
	C418.458160,259.745728 417.609711,256.410675 417.634674,252.687012 
	C417.710632,241.370529 417.662872,230.053223 417.663269,218.736237 
	C417.663300,217.103455 417.663239,215.470673 417.663239,213.172821 
	C413.322876,213.172821 409.346588,213.499908 405.468414,213.025238 
	C403.712555,212.810333 401.217346,211.286072 400.777588,209.834625 
	C400.376343,208.510361 402.298370,206.482147 403.855469,205.076599 
	C416.620697,205.498123 428.726837,205.615555 440.833221,205.679947 
	C441.233490,205.682083 441.636627,205.146301 442.038422,204.861267 
z"/>
<path fill="#393939" opacity="1.000000" stroke="none" 
	d="
M511.026367,224.003067 
	C511.027740,219.019073 511.028107,214.534348 511.031006,210.049606 
	C511.033173,206.676239 512.690491,204.591888 516.071960,204.538361 
	C519.603271,204.482483 520.947754,206.817398 520.949646,210.078690 
	C520.958252,224.695618 520.948792,239.312531 520.956177,253.929459 
	C520.958008,257.475098 519.281250,259.901367 515.714844,259.814850 
	C512.311890,259.732269 511.036835,257.105164 511.033630,253.902252 
	C511.023895,244.102280 511.027832,234.302292 511.026367,224.003067 
z"/>
<path fill="#505050" opacity="1.000000" stroke="none" 
	d="
M350.709839,208.343750 
	C351.184662,208.520782 351.790253,209.081665 351.787994,209.640106 
	C351.726349,224.891647 351.602661,240.142929 351.215179,255.706482 
	C350.721405,252.395447 350.315460,248.772202 350.316101,245.149002 
	C350.318207,233.008148 350.465576,220.867310 350.709839,208.343750 
z"/>
<path fill="#505050" opacity="1.000000" stroke="none" 
	d="
M441.669250,204.672180 
	C441.636627,205.146301 441.233490,205.682083 440.833221,205.679947 
	C428.726837,205.615555 416.620697,205.498123 404.221954,205.081879 
	C411.627472,204.567200 419.324585,204.275375 427.024048,204.183075 
	C431.780823,204.126038 436.541290,204.372726 441.669250,204.672180 
z"/>
<path fill="#505050" opacity="1.000000" stroke="none" 
	d="
M353.932617,205.996124 
	C353.182648,206.315292 352.432709,206.634460 351.378052,206.983093 
	C351.890472,206.224609 352.707642,205.436615 353.830261,204.927368 
	C354.047333,205.464142 353.979614,205.727478 353.932617,205.996124 
z"/>
<path fill="#505050" opacity="1.000000" stroke="none" 
	d="
M383.361084,205.448425 
	C382.508942,205.599609 381.421478,205.511017 380.134094,205.153442 
	C380.998016,204.992538 382.061890,205.100601 383.361084,205.448425 
z"/>
<path fill="#252525" opacity="1.000000" stroke="none" 
	d="
M354.205048,205.980682 
	C353.979614,205.727478 354.047333,205.464142 354.123535,205.002319 
	C354.520172,204.687027 354.929016,204.575516 355.647797,204.568573 
	C355.464325,205.103851 354.970917,205.534546 354.205048,205.980682 
z"/>
<path fill="#FCFDFE" opacity="1.000000" stroke="none" 
	d="
M291.905212,184.078217 
	C287.477722,184.078369 283.532410,184.078369 279.358185,184.078369 
	C279.358185,168.657013 279.358185,153.755096 279.358185,137.669342 
	C286.772400,138.137070 294.358215,137.671753 301.376556,139.448318 
	C304.998627,140.365173 308.600464,144.766022 310.475586,148.471191 
	C314.372345,156.170822 314.042755,164.584076 311.175171,172.686157 
	C308.205780,181.075790 303.105927,184.008331 291.905212,184.078217 
z"/>
<path fill="#FBFDFE" opacity="1.000000" stroke="none" 
	d="
M424.064026,184.284103 
	C410.755127,186.615936 401.790619,177.187164 400.146088,166.112015 
	C397.911987,151.066437 405.404053,139.345200 417.689941,137.821747 
	C426.679749,136.707047 433.108459,140.875153 437.498688,148.404465 
	C445.486786,162.104187 438.346863,181.221161 424.064026,184.284103 
z"/>
<path fill="#F4F4F4" opacity="1.000000" stroke="none" 
	d="
M383.010193,225.816559 
	C381.622162,230.250961 378.892365,231.876663 374.615601,231.639191 
	C370.026825,231.384384 365.412964,231.581680 360.527832,231.581680 
	C360.527832,225.327621 360.527832,219.614853 360.527832,213.306137 
	C366.309021,213.306137 372.078491,212.898560 377.759491,213.432236 
	C382.494141,213.877014 384.313080,218.615372 383.010193,225.816559 
z"/>
<path fill="#F6F6F6" opacity="1.000000" stroke="none" 
	d="
M320.856201,224.338531 
	C322.735809,228.925323 324.504578,233.161942 326.497803,237.936264 
	C321.116211,237.936264 316.286407,237.936264 310.870605,237.936264 
	C313.328064,232.069733 315.721619,226.355698 318.417267,219.920547 
	C319.400909,221.639236 320.073120,222.813782 320.856201,224.338531 
z"/>
<path fill="#F6F6F6" opacity="1.000000" stroke="none" 
	d="
M269.498444,223.688782 
	C271.577087,228.522751 273.468842,233.046677 275.560272,238.048096 
	C270.191772,238.048096 265.478119,238.048096 259.979492,238.048096 
	C262.500732,231.970932 264.901062,226.185181 267.530945,219.846085 
	C268.303162,221.378128 268.807343,222.378418 269.498444,223.688782 
z"/>
</svg>